# xmcd
#
# Track frame offsets: 
#        150
#        16983
#        29948
#        61032
#        78576
#        95389
#        114155
#        138880
#        153314
#        168468
#        190709
#        210654
#        230568
#        252300
#        279352
#        303940
#        322949
#        337616
#
# Disc length: 4634 seconds
#
# Revision: 0
# Processed by: cddbd v1.5.2PL0 Copyright (c) Steve Scherf et al.
# Submitted via: ExactAudioCopy v0.99pb5
#
DISCID=e3121812
DTITLE=Various Artist - Stillen and Chillen (Sanfte Töne für die schönste Zeit 
DTITLE=zu Zweit)[CD1]
DYEAR=2008
DGENRE=Ambient
TTITLE0=The Love Project and Friends - Just The Two Of Us
TTITLE1=The Love Project and Friends - You Are The Sunshine Of My Life
TTITLE2=Paco Fernandez - Sal Y Sol
TTITLE3=The Love Project and Friends - Timeless
TTITLE4=The Love Project and Friends - Home
TTITLE5=The Love Project and Friends - More Than This
TTITLE6=The Love Project and Friends - Teardrop
TTITLE7=BND - Here Comes The Sun
TTITLE8=The Love Project and Friends - Walk On By
TTITLE9=The Love Project and Friends - Slip Into Something More Comforta
TTITLE9=ble
TTITLE10=The Love Project and Friends - All I Need
TTITLE11=The Love Project and Friends - Cosy In The Rocket
TTITLE12=Cupsurfer - Walk In Leaves (feat. Karen)
TTITLE13=The Love Project and Friends - Lazy Night In June
TTITLE14=The Love Project and Friends - Another Chance
TTITLE15=The Love Project and Friends - Who Needs Forever?
TTITLE16=The Love Project and Friends - Light My Fire
TTITLE17=The Porter Project - In The Still Of The Night
EXTD=
EXTT0=
EXTT1=
EXTT2=
EXTT3=
EXTT4=
EXTT5=
EXTT6=
EXTT7=
EXTT8=
EXTT9=
EXTT10=
EXTT11=
EXTT12=
EXTT13=
EXTT14=
EXTT15=
EXTT16=
EXTT17=
PLAYORDER=
